<?xml version="1.0" standalone="no"?>
<!DOCTYPE svg PUBLIC "-//W3C//DTD SVG 20010904//EN"
 "http://www.w3.org/TR/2001/REC-SVG-20010904/DTD/svg10.dtd">
<svg version="1.0" xmlns="http://www.w3.org/2000/svg"
 width="760.000000pt" height="760.000000pt" viewBox="0 0 760.000000 760.000000"
 preserveAspectRatio="xMidYMid meet">

<g transform="translate(0.000000,760.000000) scale(0.100000,-0.100000)"
fill="#000000" stroke="none">
<path d="M0 3800 l0 -3800 388 0 389 0 70 147 71 148 -38 32 c-81 70 -106 189
-61 284 26 54 51 79 106 108 42 21 119 29 170 18 28 -6 31 -4 49 36 11 23 57
119 102 212 45 94 97 204 117 245 19 41 73 154 119 250 90 186 103 219 113
290 10 70 14 79 41 82 22 3 34 21 84 128 l59 125 -55 5 c-55 5 -55 5 -37 25
10 11 64 71 121 132 80 88 110 130 138 190 37 82 38 106 2 101 -17 -2 -27 -15
-38 -45 l-14 -43 -74 0 -74 0 7 33 c26 121 132 198 252 183 l48 -6 140 295
c136 287 162 357 164 438 l1 39 -60 -4 c-59 -3 -60 -3 -60 24 0 23 8 70 26
156 4 21 8 22 128 22 l123 0 36 78 c56 120 137 291 232 487 121 252 275 580
275 588 0 4 -394 7 -875 7 l-875 0 0 825 0 825 912 0 912 0 188 -187 188 -187
0 -165 c0 -98 4 -161 9 -155 10 10 108 214 416 864 236 498 274 576 374 784
44 92 81 172 81 177 0 5 -901 9 -2195 9 l-2195 0 0 -3800z m1050 -202 c-21
-51 -35 -97 -31 -101 5 -5 32 -7 61 -5 l52 3 39 95 38 95 59 3 60 3 -34 -91
c-19 -49 -34 -95 -34 -100 0 -6 18 -10 40 -10 37 0 40 -2 40 -27 0 -66 -8 -73
-69 -73 l-57 0 -20 -52 c-10 -29 -19 -57 -19 -63 0 -5 20 -10 45 -10 50 0 54
-5 46 -56 -7 -41 -21 -49 -97 -49 l-45 0 -33 -80 -33 -80 -59 0 -58 0 26 68
c37 97 37 96 -27 93 -30 -1 -58 -6 -61 -9 -3 -4 -14 -27 -23 -52 -40 -106 -35
-100 -100 -100 -51 0 -57 2 -51 18 4 9 18 45 31 80 l24 62 -50 0 c-49 0 -50 1
-50 29 0 16 4 41 9 54 8 21 16 24 67 26 32 1 62 5 66 9 3 4 16 31 27 60 l21
52 -56 0 -56 0 6 31 c3 17 6 40 6 50 0 16 10 19 71 21 l71 3 37 97 36 98 62 0
62 0 -39 -92z m840 31 c0 -11 -5 -51 -11 -90 l-12 -69 -97 0 c-105 0 -110 -3
-110 -56 0 -24 2 -24 85 -24 l86 0 -6 -32 c-3 -18 -9 -53 -13 -78 l-8 -45 -86
-3 c-99 -3 -90 9 -110 -139 l-12 -93 -118 0 c-65 0 -118 3 -118 7 0 9 57 377
75 488 9 50 18 105 21 123 l5 32 214 0 c210 0 215 0 215 -21z m315 -61 c-6
-46 -29 -192 -50 -325 l-39 -243 -117 0 -116 0 23 148 c42 276 75 477 79 490
3 9 36 12 118 12 l114 0 -12 -82z m-622 -892 c18 -7 43 -26 57 -41 22 -23 25
-36 25 -98 0 -93 -24 -141 -111 -230 l-66 -67 67 0 66 0 -6 -57 c-4 -32 -10
-61 -14 -66 -4 -4 -93 -6 -198 -5 l-191 3 130 144 c133 148 182 222 176 269
-2 21 -8 27 -27 27 -20 0 -27 -8 -38 -42 l-15 -43 -75 0 -75 0 7 33 c9 42 53
115 86 139 59 44 144 59 202 34z m-205 -833 c56 -14 46 -103 -14 -125 -22 -8
-37 -21 -40 -35 -5 -17 -13 -23 -35 -23 -25 0 -29 3 -25 23 3 12 10 49 16 82
6 33 13 66 15 73 5 13 45 16 83 5z m165 0 c3 -5 8 -47 12 -95 l7 -88 -31 0
c-21 0 -31 5 -31 15 0 20 -27 19 -38 -1 -5 -10 -19 -14 -35 -12 l-26 3 37 85
c20 47 41 88 47 92 13 10 53 10 58 1z"/>
<path d="M954 3353 c-40 -95 -42 -90 40 -85 l53 4 26 59 26 59 -65 0 -64 0
-16 -37z"/>
<path d="M1340 1780 c0 -5 5 -10 10 -10 6 0 10 5 10 10 0 6 -4 10 -10 10 -5 0
-10 -4 -10 -10z"/>
<path d="M1492 1750 c0 -14 2 -19 5 -12 2 6 2 18 0 25 -3 6 -5 1 -5 -13z"/>
<path d="M5255 7200 c-3 -5 -5 -46 -4 -90 1 -44 -1 -84 -5 -87 -3 -3 -6 14 -6
38 0 37 -6 51 -32 78 -18 18 -34 28 -36 22 -2 -7 -10 -8 -20 -2 -20 11 -47 -8
-76 -53 -18 -28 -18 -29 0 -22 45 17 71 18 71 2 0 -19 -9 -20 -25 -4 -9 9 -12
9 -12 0 0 -7 -9 -12 -21 -12 -14 0 -19 -5 -16 -14 4 -10 1 -13 -7 -10 -9 4
-14 -2 -13 -18 0 -13 -3 -31 -8 -42 -6 -14 -5 -18 6 -14 32 11 43 -36 16 -70
-8 -10 -7 -16 6 -23 9 -5 14 -16 11 -24 -7 -17 11 -21 21 -5 5 8 11 8 20 0 9
-8 14 -6 19 5 8 22 26 19 26 -5 0 -12 5 -17 14 -14 8 3 17 1 21 -5 11 -19 24
-12 28 17 2 15 5 -84 6 -220 l1 -248 -37 6 c-21 3 -46 7 -55 10 -10 3 -18 1
-18 -4 0 -6 -11 -13 -25 -16 -14 -4 -25 -10 -25 -14 0 -5 -31 -23 -70 -42 -38
-19 -70 -40 -70 -47 0 -8 -12 -24 -26 -37 -23 -19 -25 -25 -15 -44 16 -31 56
-30 211 3 62 13 243 16 330 5 151 -18 201 -18 213 2 15 23 -18 60 -47 53 -12
-3 -15 -2 -8 1 20 9 14 34 -13 46 -14 6 -25 15 -25 20 0 4 -6 8 -13 8 -8 0
-27 11 -43 25 -15 13 -30 22 -33 20 -2 -3 -14 1 -25 8 -13 9 -44 13 -82 12
-34 -2 -66 0 -71 4 -6 3 -14 81 -18 179 -6 150 -5 172 8 172 12 0 14 -9 10
-40 -10 -69 45 -100 66 -38 9 25 8 36 -4 55 -9 12 -21 23 -29 23 -30 0 -44 35
-47 118 -3 63 0 85 11 92 17 11 50 -5 50 -25 0 -20 31 -55 43 -48 10 6 5 -25
-10 -63 -5 -13 -3 -15 8 -8 8 4 19 9 24 10 6 0 15 2 21 2 6 1 9 18 8 37 -2 19
1 35 6 35 6 0 10 5 10 10 0 6 -8 10 -17 10 -11 0 -14 3 -7 8 18 12 12 42 -8
42 -10 0 -18 4 -18 9 0 5 -3 18 -6 28 -4 13 0 11 15 -7 12 -15 21 -19 21 -11
0 11 3 11 15 1 13 -11 15 -7 15 29 0 41 -5 45 -47 44 -7 -1 -13 5 -13 13 0 8
-3 13 -7 13 -5 -1 -17 0 -28 1 -15 1 -13 4 9 10 16 5 33 7 38 4 4 -3 8 2 8 10
0 8 -12 23 -27 34 -24 16 -33 18 -61 8 -18 -6 -37 -18 -42 -26 -7 -11 -10 -3
-10 27 0 41 -13 63 -25 43z m64 -135 c-21 -35 -39 -53 -39 -39 0 8 49 74 55
74 2 0 -5 -16 -16 -35z m-204 -24 c3 -5 2 -12 -3 -15 -5 -3 -9 1 -9 9 0 17 3
19 12 6z m35 -31 c0 -5 -7 -10 -15 -10 -8 0 -15 -4 -15 -10 0 -5 -7 -10 -17
-10 -14 0 -14 2 2 20 19 21 45 27 45 10z m190 -5 c-7 -8 -20 -15 -29 -15 -11
1 -8 5 9 15 32 18 35 18 20 0z m-14 -720 c17 -13 17 -16 4 -26 -13 -9 -12 -10
3 -5 10 3 17 0 17 -8 0 -16 -32 -26 -60 -19 -15 4 -19 11 -16 27 3 12 0 9 -6
-6 -12 -29 -35 -40 -24 -12 3 8 1 24 -4 34 -7 13 -6 20 3 23 25 10 64 7 83 -8z
m142 -5 c24 -15 32 -27 30 -43 -2 -18 -10 -23 -44 -25 -58 -4 -90 11 -97 45
-3 16 0 31 6 35 22 14 72 8 105 -12z m-239 -12 c12 -19 11 -24 -9 -40 -26 -21
-120 -26 -120 -5 0 7 -4 5 -10 -4 -6 -11 -30 -19 -67 -24 -32 -4 -65 -9 -75
-10 -12 -3 -16 0 -12 7 5 8 1 9 -10 5 -27 -10 -16 22 14 42 18 12 22 13 15 2
-6 -11 -2 -10 16 2 35 25 118 20 102 -6 -3 -6 -1 -7 5 -3 6 4 9 13 6 21 -8 19
28 34 86 34 36 1 48 -3 59 -21z m334 2 c10 0 16 -4 12 -10 -3 -5 -13 -6 -23
-3 -9 3 -14 3 -10 -2 4 -4 24 -9 43 -10 47 -2 65 -19 42 -42 -15 -15 -22 -16
-64 -5 -26 7 -48 14 -49 15 -1 1 -4 17 -8 36 -6 31 -4 33 17 27 12 -3 30 -6
40 -6z"/>
<path d="M5041 6233 c7 -12 15 -20 18 -17 3 2 -3 12 -13 22 -17 16 -18 16 -5
-5z"/>
<path d="M1350 5635 l0 -796 345 1 345 1 0 160 0 159 -40 0 c-27 0 -43 -5 -46
-15 -8 -19 -34 -20 -34 0 0 29 88 180 104 179 14 -2 16 20 16 182 l0 184 -115
0 -115 0 0 -132 c0 -73 -4 -138 -8 -144 -9 -13 -46 -34 -62 -34 -6 0 -22 11
-36 25 l-25 25 1 325 c1 299 3 326 20 347 17 22 26 23 179 26 l161 3 0 150 0
149 -345 0 -345 0 0 -795z m396 -345 c20 -27 39 -50 43 -50 3 0 21 23 39 51
19 27 39 48 45 46 8 -2 13 -37 15 -97 3 -108 -1 -128 -23 -110 -10 8 -13 27
-11 61 2 27 1 51 -3 53 -4 3 -20 -11 -36 -31 l-28 -36 -34 39 -33 39 0 -62 c0
-49 -3 -63 -15 -63 -17 0 -16 -3 -21 105 -4 124 6 133 62 55z"/>
<path d="M4682 5713 c3 -379 4 -402 27 -493 57 -227 179 -438 352 -607 88 -86
195 -173 213 -173 21 0 140 95 216 172 144 144 264 334 319 498 41 126 53 203
59 393 l7 187 -162 0 c-102 0 -163 4 -163 10 0 6 61 10 163 10 l162 0 -3 200
-3 200 -595 0 -595 0 3 -397z m1156 185 l-3 -173 -33 -3 c-30 -3 -42 6 -143
108 -96 98 -109 115 -109 145 0 32 -2 35 -30 35 -27 0 -30 -3 -30 -33 0 -28
-14 -47 -104 -136 -57 -57 -107 -104 -111 -103 -4 0 -54 46 -111 103 -91 89
-104 106 -104 136 0 30 -3 33 -30 33 -27 0 -30 -3 -30 -32 0 -28 -16 -48 -112
-145 -88 -89 -119 -113 -140 -113 l-27 0 -3 171 c-2 94 -1 173 1 175 2 2 256
4 563 4 l558 0 -2 -172z m-800 -142 c-2 -192 0 -242 10 -239 8 4 12 30 12 84
l0 79 215 0 215 0 0 -80 c0 -47 4 -80 10 -80 6 0 10 87 10 240 0 153 4 240 10
240 6 0 10 -87 10 -240 0 -153 4 -240 10 -240 6 0 10 33 10 80 l0 80 146 0
146 0 -7 -157 c-4 -87 -10 -159 -14 -160 -3 -2 -5 -20 -5 -42 2 -42 -17 -136
-34 -167 -5 -10 -10 -23 -11 -29 0 -11 -20 -62 -51 -131 -40 -90 -174 -279
-190 -269 -4 3 -14 -3 -21 -12 -10 -12 -10 -14 -1 -9 6 4 12 3 12 -1 0 -17
-187 -188 -237 -216 -6 -4 -35 12 -65 34 -63 49 -188 170 -188 182 0 4 4 6 9
2 5 -3 12 -1 16 4 3 6 -3 8 -14 6 -11 -2 -29 7 -42 21 -20 21 -21 27 -9 35 13
9 12 10 -2 5 -11 -3 -26 6 -43 25 -30 36 -31 46 -7 53 10 3 7 4 -8 3 -28 -2
-41 29 -18 45 9 7 7 7 -9 3 -12 -3 -25 -1 -29 6 -4 7 -3 9 4 5 6 -3 13 -2 17
4 3 5 -3 10 -14 10 -15 0 -28 15 -47 51 -14 28 -23 53 -20 56 3 3 -1 12 -9 20
-8 8 -15 25 -15 38 0 13 -4 26 -8 29 -11 7 -38 105 -51 187 -6 37 -11 134 -11
218 l0 151 140 0 140 0 0 -80 c0 -47 4 -80 10 -80 6 0 10 87 10 240 0 159 4
240 10 240 7 0 10 -81 8 -244z m-38 142 c0 -17 -161 -178 -177 -178 -7 0 -13
1 -13 3 0 7 175 185 183 186 4 1 7 -5 7 -11z m235 -176 c-17 -4 -168 150 -173
177 -2 9 40 -27 92 -79 64 -62 91 -96 81 -98z m172 81 c-46 -47 -89 -84 -95
-82 -6 2 30 46 81 98 52 53 93 88 95 81 3 -7 -34 -51 -81 -97z m243 12 c54
-55 88 -95 79 -95 -18 0 -172 153 -177 175 -2 8 -2 15 0 15 2 0 46 -43 98 -95z
m-701 -41 c-29 -30 -62 -54 -73 -54 -15 0 -2 18 50 70 50 51 70 66 72 54 2 -9
-18 -39 -49 -70z m490 0 c-47 -48 -79 -67 -79 -47 0 3 28 34 63 68 42 42 63
58 65 47 2 -8 -20 -39 -49 -68z m-260 -53 c-15 -5 -119 99 -119 118 0 9 29
-13 65 -49 36 -36 60 -67 54 -69z m490 0 c-15 -5 -119 99 -119 118 0 9 29 -13
65 -49 36 -36 60 -67 54 -69z m-695 24 c-26 -24 -44 -32 -44 -19 0 3 15 21 33
39 21 22 33 28 35 19 2 -7 -9 -25 -24 -39z m156 -17 c0 -15 -24 -8 -47 14 -13
12 -23 30 -23 39 0 15 7 12 35 -14 19 -17 35 -35 35 -39z m356 37 c-7 -18 -55
-50 -63 -41 -4 3 9 22 28 42 31 32 48 32 35 -1z m124 -43 c-17 -6 -60 39 -60
62 1 18 6 15 36 -19 20 -22 30 -41 24 -43z m-610 8 c0 -5 -5 -10 -11 -10 -5 0
-7 5 -4 10 3 6 8 10 11 10 2 0 4 -4 4 -10z m75 0 c3 -5 1 -10 -4 -10 -6 0 -11
5 -11 10 0 6 2 10 4 10 3 0 8 -4 11 -10z m415 0 c0 -5 -5 -10 -11 -10 -5 0 -7
5 -4 10 3 6 8 10 11 10 2 0 4 -4 4 -10z m75 0 c3 -5 1 -10 -4 -10 -6 0 -11 5
-11 10 0 6 2 10 4 10 3 0 8 -4 11 -10z m-565 -30 c0 -6 -55 -10 -146 -10 -94
0 -143 4 -139 10 4 6 63 10 146 10 86 0 139 -4 139 -10z m490 0 c0 -6 -78 -10
-215 -10 -137 0 -215 4 -215 10 0 6 78 10 215 10 137 0 215 -4 215 -10z"/>
<path d="M5068 5493 c7 -3 16 -2 19 1 4 3 -2 6 -13 5 -11 0 -14 -3 -6 -6z"/>
<path d="M5388 5453 c7 -3 16 -2 19 1 4 3 -2 6 -13 5 -11 0 -14 -3 -6 -6z"/>
<path d="M5560 5430 c8 -5 20 -10 25 -10 6 0 3 5 -5 10 -8 5 -19 10 -25 10 -5
0 -3 -5 5 -10z"/>
<path d="M5190 5420 c8 -5 26 -10 39 -10 32 0 24 6 -19 14 -25 4 -31 3 -20 -4z"/>
<path d="M5315 5420 c-3 -5 -2 -10 4 -10 5 0 13 5 16 10 3 6 2 10 -4 10 -5 0
-13 -4 -16 -10z"/>
<path d="M4918 5413 c7 -3 16 -2 19 1 4 3 -2 6 -13 5 -11 0 -14 -3 -6 -6z"/>
<path d="M5270 5410 c-8 -5 -10 -10 -5 -10 6 0 17 5 25 10 8 5 11 10 5 10 -5
0 -17 -5 -25 -10z"/>
<path d="M5708 5413 c7 -3 16 -2 19 1 4 3 -2 6 -13 5 -11 0 -14 -3 -6 -6z"/>
<path d="M4878 5403 c7 -3 16 -2 19 1 4 3 -2 6 -13 5 -11 0 -14 -3 -6 -6z"/>
<path d="M5098 5353 c7 -3 16 -2 19 1 4 3 -2 6 -13 5 -11 0 -14 -3 -6 -6z"/>
<path d="M4760 5341 c0 -8 41 -23 47 -17 2 1 -8 8 -22 14 -14 6 -25 8 -25 3z"/>
<path d="M4990 5340 c-9 -6 -10 -10 -3 -10 6 0 15 5 18 10 8 12 4 12 -15 0z"/>
<path d="M5140 5346 c0 -2 7 -7 16 -10 8 -3 12 -2 9 4 -6 10 -25 14 -25 6z"/>
<path d="M5547 5339 c7 -7 15 -10 18 -7 3 3 -2 9 -12 12 -14 6 -15 5 -6 -5z"/>
<path d="M5778 5343 c7 -3 16 -2 19 1 4 3 -2 6 -13 5 -11 0 -14 -3 -6 -6z"/>
<path d="M5720 5319 c-27 -15 -29 -18 -10 -13 14 3 32 12 40 20 19 19 12 17
-30 -7z"/>
<path d="M5199 5318 c-5 -18 -6 -38 -1 -34 7 8 12 36 6 36 -2 0 -4 -1 -5 -2z"/>
<path d="M5593 5305 c0 -8 4 -12 9 -9 5 3 6 10 3 15 -9 13 -12 11 -12 -6z"/>
<path d="M4868 5303 c7 -3 16 -2 19 1 4 3 -2 6 -13 5 -11 0 -14 -3 -6 -6z"/>
<path d="M4910 5300 c-11 -8 -7 -9 15 -4 37 8 45 14 19 14 -10 0 -26 -5 -34
-10z"/>
<path d="M5298 5303 c7 -3 16 -2 19 1 4 3 -2 6 -13 5 -11 0 -14 -3 -6 -6z"/>
<path d="M5648 5303 c6 -2 18 -2 25 0 6 3 1 5 -13 5 -14 0 -19 -2 -12 -5z"/>
<path d="M5394 5264 c-18 -14 -18 -15 4 -4 12 6 22 13 22 15 0 8 -5 6 -26 -11z"/>
<path d="M5755 5254 c-22 -13 -35 -24 -30 -24 12 0 75 38 75 45 0 6 2 7 -45
-21z"/>
<path d="M5355 5261 c-3 -5 -2 -12 3 -15 5 -3 9 1 9 9 0 17 -3 19 -12 6z"/>
<path d="M4955 5240 c-13 -6 -15 -9 -5 -9 8 0 22 4 30 9 18 12 2 12 -25 0z"/>
<path d="M4830 5230 c8 -5 22 -10 30 -10 13 0 13 1 0 10 -8 5 -22 10 -30 10
-13 0 -13 -1 0 -10z"/>
<path d="M5300 5230 c-21 -7 -21 -8 -5 -9 11 0 27 4 35 9 18 11 5 11 -30 0z"/>
<path d="M5615 5230 c3 -5 8 -10 11 -10 2 0 4 5 4 10 0 6 -5 10 -11 10 -5 0
-7 -4 -4 -10z"/>
<path d="M5648 5223 c6 -2 18 -2 25 0 6 3 1 5 -13 5 -14 0 -19 -2 -12 -5z"/>
<path d="M5405 5160 c-13 -6 -5 -7 25 -3 25 3 47 7 49 9 9 8 -55 2 -74 -6z"/>
<path d="M4985 5150 c-3 -6 1 -7 9 -4 18 7 21 14 7 14 -6 0 -13 -4 -16 -10z"/>
<path d="M5355 5140 c-3 -6 1 -7 9 -4 18 7 21 14 7 14 -6 0 -13 -4 -16 -10z"/>
<path d="M5567 5139 c7 -7 15 -10 18 -7 3 3 -2 9 -12 12 -14 6 -15 5 -6 -5z"/>
<path d="M4830 5120 c8 -5 22 -9 30 -9 10 0 8 3 -5 9 -27 12 -43 12 -25 0z"/>
<path d="M4967 5089 c7 -7 15 -10 18 -7 3 3 -2 9 -12 12 -14 6 -15 5 -6 -5z"/>
<path d="M5038 5083 c7 -3 16 -2 19 1 4 3 -2 6 -13 5 -11 0 -14 -3 -6 -6z"/>
<path d="M5108 5083 c7 -3 16 -2 19 1 4 3 -2 6 -13 5 -11 0 -14 -3 -6 -6z"/>
<path d="M5140 5075 c0 -2 10 -10 23 -16 20 -11 21 -11 8 4 -13 16 -31 23 -31
12z"/>
<path d="M5233 5033 c9 -2 23 -2 30 0 6 3 -1 5 -18 5 -16 0 -22 -2 -12 -5z"/>
<path d="M5628 5033 c7 -3 16 -2 19 1 4 3 -2 6 -13 5 -11 0 -14 -3 -6 -6z"/>
<path d="M5128 4973 c7 -3 16 -2 19 1 4 3 -2 6 -13 5 -11 0 -14 -3 -6 -6z"/>
<path d="M5408 4973 c7 -3 16 -2 19 1 4 3 -2 6 -13 5 -11 0 -14 -3 -6 -6z"/>
<path d="M5365 4960 c-16 -7 -17 -9 -3 -9 9 -1 20 4 23 9 7 11 7 11 -20 0z"/>
<path d="M5556 4956 c10 -8 21 -12 24 -10 5 6 -21 24 -34 24 -6 0 -1 -6 10
-14z"/>
<path d="M4930 4935 c-14 -8 -20 -14 -14 -15 5 0 19 7 30 15 24 18 16 19 -16
0z"/>
<path d="M5305 4930 c-13 -6 -15 -9 -5 -9 8 0 22 4 30 9 18 12 2 12 -25 0z"/>
<path d="M5602 4926 c7 -8 17 -12 22 -9 4 3 2 9 -5 14 -22 13 -31 11 -17 -5z"/>
<path d="M5642 4910 c-7 -11 -9 -20 -4 -20 4 0 13 9 20 20 7 11 9 20 4 20 -4
0 -13 -9 -20 -20z"/>
<path d="M5453 4903 c9 -2 25 -2 35 0 9 3 1 5 -18 5 -19 0 -27 -2 -17 -5z"/>
<path d="M5380 4879 c-17 -13 -18 -17 -5 -10 33 17 51 31 40 31 -5 0 -21 -10
-35 -21z"/>
<path d="M4960 4866 c4 -4 16 -4 26 2 16 9 14 10 -8 9 -15 -1 -23 -6 -18 -11z"/>
<path d="M5557 4869 c7 -7 15 -10 18 -7 3 3 -2 9 -12 12 -14 6 -15 5 -6 -5z"/>
<path d="M5605 4860 c-16 -7 -17 -9 -3 -9 9 -1 20 4 23 9 7 11 7 11 -20 0z"/>
<path d="M5198 4853 c6 -2 18 -2 25 0 6 3 1 5 -13 5 -14 0 -19 -2 -12 -5z"/>
<path d="M5253 4843 c9 -2 25 -2 35 0 9 3 1 5 -18 5 -19 0 -27 -2 -17 -5z"/>
<path d="M5068 4793 c7 -3 16 -2 19 1 4 3 -2 6 -13 5 -11 0 -14 -3 -6 -6z"/>
<path d="M5453 4793 c9 -2 23 -2 30 0 6 3 -1 5 -18 5 -16 0 -22 -2 -12 -5z"/>
<path d="M5018 4783 c7 -3 16 -2 19 1 4 3 -2 6 -13 5 -11 0 -14 -3 -6 -6z"/>
<path d="M5238 4733 c7 -3 16 -2 19 1 4 3 -2 6 -13 5 -11 0 -14 -3 -6 -6z"/>
<path d="M5365 4685 c-16 -8 -23 -14 -14 -15 8 0 24 7 35 15 23 18 18 18 -21
0z"/>
<path d="M5175 4680 c6 -10 64 -24 71 -17 3 2 -13 9 -36 15 -22 5 -38 6 -35 2z"/>
<path d="M5308 4663 c7 -3 16 -2 19 1 4 3 -2 6 -13 5 -11 0 -14 -3 -6 -6z"/>
<path d="M1817 5993 c-4 -3 -7 -44 -7 -90 l0 -83 115 0 115 0 0 90 0 90 -108
0 c-60 0 -112 -3 -115 -7z"/>
<path d="M2008 5254 c-3 -10 -9 -27 -13 -36 -6 -15 -2 -18 19 -18 29 0 35 24
13 55 -13 17 -14 17 -19 -1z"/>
<path d="M4530 4920 c0 -94 14 -135 58 -167 58 -43 63 -54 38 -74 -18 -15 -21
-30 -24 -111 -4 -113 1 -122 84 -133 207 -26 391 -110 525 -242 l57 -55 77 66
c146 124 310 200 494 226 102 15 111 26 111 128 0 72 -10 107 -36 127 -17 12
-10 22 43 63 28 22 46 46 53 70 11 40 14 145 4 154 -3 4 -20 -10 -37 -29 -18
-19 -77 -65 -132 -101 l-100 -67 -3 -91 -3 -91 -87 -22 c-111 -28 -229 -83
-310 -143 -35 -27 -65 -48 -68 -48 -3 0 -24 16 -47 35 -58 50 -206 120 -319
152 l-98 27 0 77 c0 43 -3 85 -7 94 -3 10 -45 42 -92 72 -47 31 -107 76 -133
101 l-48 46 0 -64z m1465 -87 c-4 -25 -20 -44 -66 -79 -59 -45 -62 -46 -97
-35 -51 15 -66 26 -59 43 3 8 50 45 106 82 55 36 104 72 108 79 11 16 16 -47
8 -90z m-1382 49 c29 -21 78 -55 110 -76 32 -20 57 -42 54 -49 -6 -19 -77 -49
-101 -43 -12 4 -43 26 -70 50 -46 40 -49 47 -54 100 -2 31 -1 56 2 56 4 0 30
-17 59 -38z m177 -223 c0 -62 -2 -70 -17 -65 -10 2 -44 12 -75 20 -60 17 -77
31 -59 49 10 10 128 65 144 66 4 1 7 -31 7 -70z m1110 11 c31 -23 19 -37 -48
-56 -31 -8 -65 -18 -74 -20 -16 -5 -18 3 -18 65 l0 70 59 -21 c32 -12 69 -29
81 -38z m-1120 -91 c241 -56 352 -105 463 -203 l28 -24 66 49 c112 85 218 129
430 178 70 16 135 31 142 33 12 2 16 -10 18 -52 6 -96 8 -94 -119 -120 -125
-25 -226 -59 -297 -97 -54 -30 -176 -121 -210 -156 l-23 -26 -80 68 c-133 113
-258 172 -455 211 -59 12 -111 27 -115 34 -4 6 -8 42 -8 80 0 61 2 67 18 61 9
-4 73 -20 142 -36z"/>
<path d="M4698 4521 c-3 -32 0 -41 15 -45 34 -8 46 4 44 42 -2 32 -6 37 -28
40 -25 3 -27 0 -31 -37z m44 14 c0 -5 -5 -11 -11 -13 -6 -2 -11 4 -11 13 0 9
5 15 11 13 6 -2 11 -8 11 -13z m-2 -40 c0 -8 -4 -15 -9 -15 -13 0 -22 16 -14
24 11 11 23 6 23 -9z"/>
<path d="M4790 4530 c0 -12 -5 -30 -10 -41 -9 -16 -7 -21 15 -29 32 -12 45
-13 45 -1 0 5 -8 8 -17 7 -10 0 -19 7 -21 17 -3 15 0 18 17 12 12 -4 21 -2 21
4 0 6 -5 10 -11 9 -6 -2 -14 3 -17 11 -3 10 1 13 17 8 11 -3 21 -1 21 4 0 5
-6 9 -14 9 -8 0 -21 3 -30 6 -12 4 -16 0 -16 -16z"/>
<path d="M5725 4540 c-16 -5 -43 -13 -60 -19 -30 -11 -30 -11 8 -7 38 5 42 0
40 -51 -1 -7 6 -13 14 -13 10 0 13 6 9 16 -18 47 -17 61 3 67 22 5 31 -9 31
-49 0 -13 5 -24 11 -24 8 0 9 11 5 31 -3 17 -6 38 -6 45 0 15 -10 16 -55 4z"/>
<path d="M5817 4510 c-8 -22 -11 -40 -6 -40 5 0 9 7 9 15 0 8 9 15 20 15 11 0
20 -7 20 -15 0 -8 5 -15 10 -15 6 0 10 2 10 5 0 11 -34 75 -40 75 -4 0 -14
-18 -23 -40z"/>
<path d="M4868 4503 c-3 -16 -9 -36 -13 -45 -5 -13 -3 -18 10 -18 9 0 14 4 10
9 -3 5 -1 12 4 15 5 4 12 -3 16 -14 8 -25 25 -27 18 -1 -3 10 0 22 6 25 19 12
12 32 -14 44 -34 16 -32 16 -37 -15z m42 -8 c0 -8 -4 -15 -10 -15 -5 0 -10 7
-10 15 0 8 5 15 10 15 6 0 10 -7 10 -15z"/>
<path d="M5618 4466 c15 -42 17 -43 44 -34 15 6 28 15 28 21 0 7 -4 7 -12 -1
-17 -17 -38 -15 -38 3 0 8 7 15 15 15 8 0 15 5 15 11 0 6 -9 8 -20 4 -14 -5
-20 -2 -20 9 0 9 -6 16 -14 16 -11 0 -11 -8 2 -44z"/>
<path d="M4954 4479 c-3 -6 -1 -16 5 -22 19 -19 13 -39 -10 -32 -15 5 -19 4
-15 -4 4 -6 18 -11 32 -11 17 0 24 5 24 19 0 11 -4 23 -10 26 -19 12 -10 26
11 20 15 -5 19 -4 15 4 -9 14 -43 14 -52 0z"/>
<path d="M5545 4480 c-9 -14 3 -30 32 -41 13 -5 21 -13 18 -19 -3 -5 -1 -10 4
-10 23 0 11 40 -14 46 -14 3 -25 11 -25 16 0 6 7 8 15 4 8 -3 15 -1 15 4 0 13
-37 13 -45 0z"/>
<path d="M5480 4454 c0 -3 5 -15 11 -26 9 -17 9 -20 -2 -16 -40 15 -61 19 -57
12 2 -5 10 -21 17 -37 19 -38 8 -43 -33 -17 -39 24 -42 20 -30 -39 4 -17 10
-28 15 -26 4 3 6 12 3 19 -7 18 16 32 26 16 6 -9 12 -9 28 1 16 10 18 17 10
32 -13 25 -6 30 26 18 20 -8 26 -8 26 4 0 7 -4 17 -10 20 -5 3 -10 15 -10 26
0 10 -4 19 -10 19 -5 0 -10 -3 -10 -6z m-75 -94 c3 -5 1 -10 -4 -10 -6 0 -11
5 -11 10 0 6 2 10 4 10 3 0 8 -4 11 -10z"/>
<path d="M5026 4424 c-15 -14 -25 -28 -22 -32 4 -3 11 0 15 7 11 17 34 4 27
-14 -2 -7 2 -16 10 -19 11 -4 14 5 14 39 0 25 -3 45 -7 45 -5 0 -21 -12 -37
-26z m34 2 c0 -3 -4 -8 -10 -11 -5 -3 -10 -1 -10 4 0 6 5 11 10 11 6 0 10 -2
10 -4z"/>
<path d="M5108 4423 c18 -7 15 -26 -8 -51 -13 -13 -16 -23 -9 -27 6 -4 11 -5
13 -4 1 2 10 17 20 33 13 20 20 25 26 16 5 -7 10 -8 14 -2 7 11 -36 42 -56 41
-10 0 -10 -2 0 -6z"/>
<path d="M5560 4410 c0 -5 5 -10 10 -10 6 0 10 5 10 10 0 6 -4 10 -10 10 -5 0
-10 -4 -10 -10z"/>
<path d="M5167 4358 c-22 -39 -21 -55 4 -63 14 -5 28 0 45 16 24 23 31 39 16
39 -5 0 -14 -11 -20 -25 -12 -25 -36 -33 -46 -16 -4 5 5 23 19 39 18 22 21 31
12 35 -7 3 -20 -8 -30 -25z"/>
<path d="M5296 4335 c-19 -15 -19 -15 1 -37 11 -13 22 -29 24 -36 8 -24 49 16
49 47 0 41 -37 54 -74 26z m54 -10 c6 -8 9 -23 5 -36 l-7 -21 -25 25 c-25 25
-24 47 1 47 8 0 19 -7 26 -15z"/>
<path d="M952 663 c-65 -32 -111 -128 -92 -191 8 -26 8 -25 9 10 2 72 44 137
108 164 36 15 127 19 119 5 -3 -5 6 -16 20 -25 81 -54 85 -175 7 -236 -15 -11
-19 -17 -8 -11 103 50 112 202 14 254 l-34 19 30 -6 30 -6 -35 20 c-43 24
-123 26 -168 3z"/>
<path d="M1160 661 c0 -10 19 -25 25 -20 1 2 -3 10 -11 17 -8 7 -14 8 -14 3z"/>
<path d="M2143 626 c-38 -17 -63 -61 -63 -112 0 -28 8 -44 34 -70 29 -29 41
-34 79 -34 54 0 91 26 107 75 15 46 5 86 -29 119 -34 32 -85 41 -128 22z m118
-35 c22 -22 29 -39 29 -68 0 -50 -22 -80 -69 -94 -50 -15 -96 8 -117 58 -41
97 82 179 157 104z"/>
<path d="M2174 561 c-13 -33 -4 -103 14 -109 8 -2 12 8 12 31 0 24 5 37 18 42
16 6 16 7 -1 20 -15 11 -16 13 -2 19 23 8 18 26 -8 26 -16 0 -26 -9 -33 -29z"/>
<path d="M2443 626 c-38 -17 -63 -61 -63 -112 0 -54 53 -104 110 -104 50 0 92
27 110 70 38 93 -63 188 -157 146z m118 -35 c79 -80 -12 -208 -110 -155 -49
26 -67 65 -52 115 21 71 109 93 162 40z"/>
<path d="M2497 559 c-12 -17 -15 -17 -35 -3 -12 8 -23 12 -23 7 -3 -19 4 -49
13 -60 7 -9 7 -13 -1 -13 -6 0 -11 -4 -11 -10 0 -5 14 -10 30 -10 31 0 70 30
70 54 0 8 3 21 6 29 8 23 -34 29 -49 6z"/>
<path d="M2745 626 c-42 -18 -65 -57 -65 -107 0 -33 6 -47 34 -75 39 -39 86
-45 137 -18 60 31 75 127 26 171 -48 44 -81 51 -132 29z m116 -35 c22 -22 29
-39 29 -68 0 -50 -22 -80 -70 -94 -33 -10 -43 -9 -72 8 -64 37 -72 101 -21
155 38 40 94 39 134 -1z"/>
<path d="M2734 566 c-3 -7 -4 -33 -2 -57 l3 -44 58 -3 57 -3 0 61 0 60 -55 0
c-38 0 -57 -4 -61 -14z m101 -5 c3 -5 1 -12 -5 -16 -5 -3 -10 1 -10 9 0 18 6
21 15 7z m-25 -35 c0 -8 -5 -18 -11 -22 -14 -8 -33 11 -25 25 10 16 36 13 36
-3z m-40 -31 c10 -12 10 -15 -4 -15 -9 0 -16 7 -16 15 0 8 2 15 4 15 2 0 9 -7
16 -15z m65 -4 c-3 -6 -11 -11 -17 -11 -6 0 -6 6 2 15 14 17 26 13 15 -4z"/>
<path d="M1520 610 c0 -5 5 -10 10 -10 6 0 10 5 10 10 0 6 -4 10 -10 10 -5 0
-10 -4 -10 -10z"/>
<path d="M1640 610 c0 -5 5 -10 10 -10 6 0 10 5 10 10 0 6 -4 10 -10 10 -5 0
-10 -4 -10 -10z"/>
<path d="M1732 609 c2 -6 8 -10 13 -10 5 0 11 4 13 10 2 6 -4 11 -13 11 -9 0
-15 -5 -13 -11z"/>
<path d="M965 600 c-12 -4 -27 -15 -34 -24 -17 -20 -18 -93 -2 -109 15 -15 14
-30 -1 -21 -7 4 -4 -3 7 -15 61 -70 169 -64 215 11 23 38 26 100 7 117 -11 8
-13 4 -9 -21 3 -21 1 -29 -6 -24 -6 4 -9 13 -6 20 4 11 -11 14 -76 14 -44 -1
-83 2 -87 6 -4 3 4 17 17 31 24 26 15 32 -25 15z m65 -85 c0 -8 -4 -15 -10
-15 -5 0 -10 7 -10 15 0 8 5 15 10 15 6 0 10 -7 10 -15z m75 -13 c-3 -3 -11 0
-18 7 -9 10 -8 11 6 5 10 -3 15 -9 12 -12z m-37 -25 c62 7 66 -9 7 -26 -35 -9
-115 4 -115 19 0 12 33 18 44 9 4 -4 33 -5 64 -2z m62 -32 c0 -2 -10 -9 -22
-15 -22 -11 -22 -10 -4 4 21 17 26 19 26 11z m-77 -22 c-7 -2 -19 -2 -25 0 -7
3 -2 5 12 5 14 0 19 -2 13 -5z"/>
<path d="M5643 593 c3 -10 12 -36 20 -58 l15 -40 -58 -3 c-45 -2 -62 -8 -79
-26 l-22 -23 59 -7 c32 -4 84 -4 115 0 l56 7 -6 31 c-8 43 -20 66 -56 104 -34
35 -52 42 -44 15z"/>
<path d="M835 570 c3 -5 8 -10 11 -10 2 0 4 5 4 10 0 6 -5 10 -11 10 -5 0 -7
-4 -4 -10z"/>
<path d="M3530 510 c0 -45 4 -69 10 -65 6 3 10 33 10 65 0 32 -4 62 -10 65 -6
4 -10 -20 -10 -65z"/>
<path d="M4773 568 c-22 -34 -31 -58 -22 -58 5 0 9 -13 9 -30 0 -16 5 -30 10
-30 6 0 10 13 10 29 0 16 6 32 13 34 9 4 9 8 -2 15 -12 8 -12 13 -2 25 7 10 8
18 2 21 -5 4 -13 1 -18 -6z"/>
<path d="M1517 563 c-12 -11 -8 -23 8 -23 8 0 15 7 15 15 0 16 -12 20 -23 8z"/>
<path d="M3070 510 c0 -33 4 -60 10 -60 6 0 10 9 10 20 0 15 7 20 24 20 14 0
28 5 31 10 4 6 -7 10 -24 10 -24 0 -31 4 -31 20 0 16 7 20 31 20 17 0 28 4 24
10 -3 6 -22 10 -41 10 l-34 0 0 -60z"/>
<path d="M3170 556 c0 -9 5 -16 10 -16 6 0 10 4 10 9 0 6 -4 13 -10 16 -5 3
-10 -1 -10 -9z"/>
<path d="M3280 511 c0 -69 20 -96 21 -29 l1 43 17 -37 c26 -55 29 -55 50 -7
l20 44 0 -37 c1 -20 6 -40 11 -43 6 -4 10 19 10 60 0 78 -13 83 -45 16 l-20
-42 -16 43 c-9 24 -23 44 -32 46 -14 3 -17 -6 -17 -57z"/>
<path d="M3826 562 c-3 -6 -1 -14 5 -17 15 -10 25 3 12 16 -7 7 -13 7 -17 1z"/>
<path d="M4820 555 c0 -8 5 -15 10 -15 6 0 10 7 10 15 0 8 -4 15 -10 15 -5 0
-10 -7 -10 -15z"/>
<path d="M3212 530 c-7 -12 -8 -20 -2 -20 5 0 10 -13 10 -29 0 -18 6 -31 16
-35 22 -8 31 1 16 16 -16 16 -15 45 0 50 9 3 8 9 -4 21 -21 21 -21 21 -36 -3z"/>
<path d="M4860 533 c-10 -12 -11 -18 -2 -21 7 -2 12 -17 12 -33 0 -29 23 -50
38 -34 4 4 1 10 -5 12 -17 6 -17 50 -1 55 9 3 8 9 -4 21 -20 20 -19 20 -38 0z"/>
<path d="M5990 446 l0 -106 34 0 35 0 3 53 3 52 19 -52 c19 -49 22 -53 53 -53
38 0 38 -1 16 45 -16 34 -16 36 5 58 25 27 28 55 8 82 -10 14 -30 19 -95 23
l-81 5 0 -107z m104 48 c30 -12 12 -44 -25 -44 -10 0 -12 33 -2 43 8 8 8 8 27
1z"/>
<path d="M6266 513 c-10 -21 -31 -68 -47 -105 l-28 -68 33 0 c28 0 36 5 46 30
11 26 18 30 49 30 31 0 38 -4 48 -30 9 -24 17 -30 42 -30 19 0 31 5 30 13 0 6
-17 53 -38 102 l-37 90 -40 3 c-37 3 -41 1 -58 -35z m64 -48 c0 -8 -7 -15 -15
-15 -9 0 -12 6 -9 15 4 8 10 15 15 15 5 0 9 -7 9 -15z"/>
<path d="M6460 443 l0 -103 29 0 30 0 3 89 c4 117 3 122 -33 119 l-29 -2 0
-103z"/>
<path d="M6540 444 l0 -104 30 0 c30 0 30 0 30 58 l1 57 36 -57 c34 -54 38
-58 74 -58 l39 0 0 105 0 105 -30 0 -30 0 0 -62 0 -63 -38 62 c-35 58 -39 61
-74 61 l-38 0 0 -104z"/>
<path d="M6764 538 c-6 -9 -3 -166 4 -185 3 -9 28 -13 77 -13 80 0 105 13 105
53 0 21 1 21 17 -3 24 -35 43 -47 80 -53 48 -8 98 10 127 44 30 35 33 67 10
110 -48 94 -234 61 -234 -41 0 -27 -2 -30 -14 -21 -12 10 -12 16 -1 38 14 27
8 54 -16 69 -18 10 -149 13 -155 2z m105 -37 c19 -12 6 -41 -19 -41 -15 0 -20
7 -20 25 0 26 14 31 39 16z m243 -18 c37 -33 11 -103 -38 -103 -31 0 -54 26
-54 60 0 53 53 78 92 43z m-227 -83 c0 -9 -11 -16 -27 -18 -23 -3 -28 1 -28
18 0 17 5 21 28 18 16 -2 27 -9 27 -18z"/>
<path d="M7195 540 c-2 -3 8 -50 22 -103 l26 -97 38 0 c37 0 39 2 49 43 6 23
12 47 14 52 1 6 8 -14 15 -43 l13 -53 41 3 40 3 23 85 c31 112 31 122 -3 118
-24 -3 -29 -10 -44 -68 -17 -69 -18 -69 -37 25 -7 36 -10 39 -42 40 -30 0 -35
-4 -42 -33 -26 -106 -23 -104 -39 -32 -13 60 -16 65 -42 66 -15 1 -29 -2 -32
-6z"/>
<path d="M825 520 c3 -5 8 -10 11 -10 2 0 4 5 4 10 0 6 -5 10 -11 10 -5 0 -7
-4 -4 -10z"/>
<path d="M3170 486 c0 -25 5 -46 10 -46 6 0 10 18 10 39 0 22 -4 43 -10 46 -6
4 -10 -12 -10 -39z"/>
<path d="M3447 523 c-14 -13 -6 -24 13 -18 11 4 20 2 20 -4 0 -6 -9 -11 -19
-11 -11 0 -23 -5 -26 -10 -11 -18 15 -39 43 -36 24 3 27 7 23 37 -4 41 -33 64
-54 42z m33 -53 c0 -5 -7 -10 -16 -10 -8 0 -12 5 -9 10 3 6 10 10 16 10 5 0 9
-4 9 -10z"/>
<path d="M3587 523 c-13 -13 -7 -21 13 -16 11 3 20 1 20 -5 0 -6 -10 -12 -22
-14 -15 -2 -23 -10 -23 -23 0 -16 7 -20 33 -20 30 -1 32 1 32 36 0 24 -5 39
-16 43 -20 8 -29 8 -37 -1z m28 -53 c-3 -5 -10 -10 -16 -10 -5 0 -9 5 -9 10 0
6 7 10 16 10 8 0 12 -4 9 -10z"/>
<path d="M3657 524 c-3 -4 0 -19 8 -35 19 -36 19 -58 0 -65 -8 -4 -13 -10 -10
-15 12 -18 34 5 55 57 13 30 20 57 16 61 -3 3 -12 -9 -19 -27 l-14 -32 -11 31
c-11 32 -14 35 -25 25z"/>
<path d="M3757 524 c-13 -13 -7 -44 8 -44 8 0 15 -5 15 -11 0 -6 -7 -8 -16 -5
-10 4 -14 1 -12 -6 6 -18 22 -20 43 -3 20 14 20 15 -5 36 -18 15 -20 19 -7 15
12 -4 17 -2 15 6 -5 15 -31 22 -41 12z"/>
<path d="M3830 485 c0 -28 4 -44 10 -40 6 3 10 21 10 40 0 19 -4 37 -10 40 -6
4 -10 -12 -10 -40z"/>
<path d="M3883 523 c-24 -9 -13 -23 12 -17 17 4 25 2 25 -7 0 -7 -3 -9 -6 -6
-10 10 -44 -12 -44 -28 0 -16 1 -17 43 -19 25 -2 27 1 27 35 0 43 -20 57 -57
42z m32 -53 c-3 -5 -10 -10 -16 -10 -5 0 -9 5 -9 10 0 6 7 10 16 10 8 0 12 -4
9 -10z"/>
<path d="M3960 489 c0 -21 5 -41 10 -44 6 -3 10 3 10 14 0 30 11 51 26 51 9 0
14 -12 14 -35 0 -19 5 -35 10 -35 14 0 12 66 -2 78 -7 5 -25 10 -40 10 -26 0
-28 -4 -28 -39z"/>
<path d="M4071 521 c-17 -11 -7 -41 14 -41 8 0 15 -5 15 -11 0 -6 -9 -8 -20
-4 -11 3 -20 2 -20 -4 0 -16 18 -23 40 -16 23 7 27 45 6 45 -8 0 -18 5 -22 11
-4 8 0 9 15 4 24 -7 29 10 5 19 -19 7 -16 8 -33 -3z"/>
<path d="M4306 508 c4 -13 11 -34 16 -48 9 -24 10 -24 24 -6 8 11 14 25 14 30
1 6 7 0 15 -14 18 -32 25 -29 41 17 17 47 17 46 2 41 -7 -3 -15 -15 -19 -29
l-6 -24 -11 28 c-14 34 -18 34 -35 1 l-14 -27 -7 27 c-3 14 -11 26 -17 26 -6
0 -8 -9 -3 -22z"/>
<path d="M4440 524 c0 -19 24 -84 31 -84 5 0 11 11 15 25 3 14 10 25 14 25 4
0 11 -11 14 -25 9 -34 22 -31 35 6 14 40 14 59 1 59 -5 0 -10 -9 -10 -19 0
-28 -18 -36 -22 -9 -5 32 -25 33 -36 1 l-10 -28 -7 28 c-6 23 -25 39 -25 21z"/>
<path d="M4580 517 c0 -23 21 -77 30 -77 5 0 13 12 18 28 l10 27 11 -27 c6
-16 13 -28 16 -28 7 0 35 64 35 80 0 21 -19 9 -28 -17 l-10 -28 -7 28 c-8 32
-25 35 -32 7 -6 -23 -23 -27 -23 -6 0 8 -4 18 -10 21 -5 3 -10 0 -10 -8z"/>
<path d="M4820 485 c0 -25 5 -45 10 -45 6 0 10 20 10 45 0 25 -4 45 -10 45 -5
0 -10 -20 -10 -45z"/>
<path d="M4980 483 c0 -50 17 -58 22 -11 4 42 28 50 28 9 0 -41 18 -49 22 -9
4 45 31 44 39 -2 4 -19 7 -30 9 -25 3 14 -1 69 -6 74 -2 3 -29 5 -59 6 l-55 1
0 -43z"/>
<path d="M5120 525 c0 -3 7 -22 15 -42 18 -43 18 -38 -1 -58 -19 -18 -14 -28
9 -19 9 3 22 24 30 47 8 23 18 50 22 60 4 10 3 17 -4 17 -6 0 -13 -11 -17 -25
-3 -14 -10 -25 -14 -25 -4 0 -11 11 -14 25 -5 21 -26 37 -26 20z"/>
<path d="M1220 510 c0 -5 5 -10 10 -10 6 0 10 5 10 10 0 6 -4 10 -10 10 -5 0
-10 -4 -10 -10z"/>
<path d="M1512 450 c0 -14 2 -19 5 -12 2 6 2 18 0 25 -3 6 -5 1 -5 -13z"/>
<path d="M4710 455 c0 -8 5 -15 10 -15 6 0 10 7 10 15 0 8 -4 15 -10 15 -5 0
-10 -7 -10 -15z"/>
<path d="M4932 459 c2 -6 8 -10 13 -10 5 0 11 4 13 10 2 6 -4 11 -13 11 -9 0
-15 -5 -13 -11z"/>
<path d="M1567 445 c-5 -11 0 -15 16 -15 12 0 18 4 12 8 -5 4 -13 11 -16 15
-4 4 -9 1 -12 -8z"/>
<path d="M1695 449 c-4 -6 -5 -12 -2 -15 2 -3 7 2 10 11 7 17 1 20 -8 4z"/>
<path d="M1725 430 c-3 -6 1 -7 9 -4 18 7 21 14 7 14 -6 0 -13 -4 -16 -10z"/>
<path d="M5500 436 c0 -1 7 -23 16 -48 15 -44 18 -47 80 -69 35 -12 64 -27 64
-31 0 -5 -7 -38 -16 -73 -15 -60 -15 -65 2 -88 l19 -24 31 81 c17 45 35 100
38 122 l7 40 -58 18 c-32 10 -86 31 -120 47 -35 15 -63 27 -63 25z"/>
<path d="M5900 423 c0 -5 7 -17 15 -27 14 -19 15 -19 15 7 0 17 -5 27 -15 27
-8 0 -15 -3 -15 -7z"/>
<path d="M6018 248 c-3 -38 -6 -43 -25 -41 -28 3 -30 -12 -5 -26 44 -24 72 6
72 77 0 25 -4 32 -19 32 -16 0 -20 -8 -23 -42z"/>
<path d="M6078 235 l-3 -55 48 0 c26 0 47 5 47 10 0 6 -13 10 -30 10 -16 0
-30 5 -30 10 0 6 11 10 25 10 16 0 25 6 25 15 0 9 -10 15 -26 15 -14 0 -23 4
-19 10 3 6 17 10 31 10 13 0 24 5 24 10 0 6 -20 10 -44 10 l-44 0 -4 -55z"/>
<path d="M6190 235 c0 -42 3 -55 15 -55 11 0 15 11 15 39 0 41 12 57 32 45 8
-5 6 -11 -6 -19 -23 -17 -5 -65 24 -65 18 0 19 3 10 20 -7 14 -7 25 1 38 21
34 5 52 -46 52 l-45 0 0 -55z"/>
<path d="M6311 276 c-8 -10 -6 -19 9 -39 25 -32 25 -41 0 -34 -13 3 -20 0 -20
-10 0 -10 10 -13 38 -11 29 2 38 8 40 25 2 13 -5 27 -18 36 -21 15 -11 35 10
22 6 -3 10 1 10 9 0 20 -53 22 -69 2z"/>
<path d="M6400 235 l0 -55 45 0 c25 0 45 5 45 10 0 6 -11 10 -25 10 -14 0 -25
5 -25 10 0 6 9 10 20 10 11 0 20 7 20 15 0 8 -9 15 -20 15 -11 0 -20 5 -20 10
0 6 9 10 19 10 11 0 26 2 33 5 17 7 38 -33 38 -70 0 -18 5 -25 20 -25 14 0 20
7 20 23 0 12 9 33 20 47 11 14 20 28 20 33 0 14 -33 7 -46 -10 -12 -17 -13
-17 -19 0 -6 14 -20 17 -76 17 l-69 0 0 -55z"/>
<path d="M6640 235 l0 -55 425 0 425 0 0 55 0 55 -425 0 -425 0 0 -55z m83 28
c-26 -5 -31 -23 -7 -23 8 0 12 -5 9 -10 -4 -6 -10 -8 -15 -5 -5 3 -11 1 -15
-5 -3 -5 3 -10 14 -10 12 0 21 -4 21 -10 0 -5 -13 -10 -30 -10 -28 0 -30 2
-30 40 0 40 0 40 38 39 23 -1 28 -3 15 -6z m113 -19 l7 -27 14 27 c7 14 20 26
27 26 11 0 9 -10 -7 -40 -12 -22 -27 -40 -34 -40 -10 0 -33 50 -33 71 0 21 20
7 26 -17z m174 14 c-21 -9 -22 -12 -7 -15 18 -5 18 -5 0 -19 -17 -13 -17 -13
5 -14 13 0 20 -4 17 -10 -8 -12 -52 -13 -59 -1 -3 5 -3 23 0 40 6 27 11 31 38
30 l31 0 -25 -11z m143 -10 l16 -23 0 23 c1 36 21 25 21 -12 0 -45 -18 -55
-41 -25 -15 19 -19 20 -19 7 0 -9 -4 -20 -10 -23 -6 -4 -10 10 -10 34 0 47 18
55 43 19z m175 11 c-11 -6 -18 -22 -18 -40 0 -20 -4 -29 -12 -26 -7 2 -12 14
-10 26 2 13 -4 28 -15 37 -16 12 -13 13 27 13 35 0 41 -2 28 -10z m132 0 c0
-5 -4 -7 -10 -4 -5 3 -10 2 -10 -4 0 -5 5 -13 10 -16 17 -11 11 -33 -11 -40
-12 -4 -26 -2 -32 4 -8 8 -6 11 6 11 19 0 23 15 7 25 -20 12 -10 35 15 35 14
0 25 -5 25 -11z"/>
<path d="M5931 250 c-1 -8 -4 -26 -7 -40 -5 -22 -4 -23 6 -7 6 10 9 28 7 40
-2 12 -5 15 -6 7z"/>
</g>
</svg>
